<svg width="33" height="33" viewBox="0 0 33 33" fill="none" xmlns="http://www.w3.org/2000/svg">
<path d="M24.5792 24.1518C24.0221 24.153 23.4703 24.0439 22.9556 23.8308C22.4409 23.6177 21.9735 23.3048 21.5803 22.9101L17.249 18.5789C17.0957 18.4332 16.8923 18.352 16.6808 18.352C16.4693 18.352 16.2659 18.4332 16.1126 18.5789L11.7649 22.9266C11.3718 23.3215 10.9044 23.6345 10.3897 23.8476C9.87497 24.0607 9.32309 24.1697 8.76598 24.1683H7.91211L13.3984 29.6545C15.1102 31.3664 17.8884 31.3664 19.6003 29.6545L25.101 24.1518H24.5792ZM8.76598 8.8315C9.90036 8.8315 10.9646 9.27288 11.7649 10.0731L16.1126 14.4209C16.1873 14.4957 16.2761 14.5551 16.3737 14.5956C16.4714 14.6361 16.5761 14.6569 16.6819 14.6569C16.7876 14.6569 16.8923 14.6361 16.99 14.5956C17.0877 14.5551 17.1764 14.4957 17.2511 14.4209L21.5824 10.0896C21.9751 9.69503 22.4422 9.38215 22.9566 9.16904C23.4709 8.95593 24.0224 8.84682 24.5792 8.848H25.101L19.6003 3.34732C18.7777 2.52526 17.6623 2.06348 16.4993 2.06348C15.3364 2.06348 14.221 2.52526 13.3984 3.34732L7.91211 8.83357L8.76598 8.8315Z" fill="#2EBDAF"/>
<path d="M29.6535 13.3978L26.3287 10.073C26.2541 10.1037 26.1743 10.1198 26.0936 10.1205H24.5818C23.8001 10.1205 23.0349 10.4381 22.4842 10.9908L18.153 15.3221C17.9604 15.5157 17.7314 15.6694 17.4792 15.7742C17.227 15.8791 16.9566 15.933 16.6835 15.933C16.4103 15.933 16.1399 15.8791 15.8877 15.7742C15.6355 15.6694 15.4065 15.5157 15.2139 15.3221L10.8662 10.9723C10.3084 10.4168 9.55378 10.104 8.76655 10.1019H6.9103C6.83335 10.1013 6.75715 10.0866 6.68548 10.0586L3.34836 13.3978C1.63648 15.1097 1.63648 17.8878 3.34836 19.6018L6.68548 22.9389C6.75636 22.9104 6.83185 22.895 6.90824 22.8935H8.76655C9.5503 22.8935 10.3134 22.578 10.8662 22.0252L15.2119 17.6754C15.6084 17.2979 16.1349 17.0873 16.6824 17.0873C17.2299 17.0873 17.7565 17.2979 18.153 17.6754L22.4842 22.0067C23.0349 22.5594 23.8001 22.875 24.5818 22.875H26.0936C26.1761 22.875 26.2566 22.8956 26.3287 22.9245L29.6535 19.5997C31.3654 17.8878 31.3654 15.1097 29.6535 13.3978Z" fill="#2EBDAF"/>
</svg>
