<svg width="1160" height="312" viewBox="0 0 1160 312" fill="none" xmlns="http://www.w3.org/2000/svg">
<g filter="url(#filter0_d_836_2224)">
<path d="M145.311 280.176V246.933H224.807V280.176H289.849L307.193 303.302H54.252L74.4872 280.176H145.311Z" fill="white"/>
</g>
<g filter="url(#filter1_d_836_2224)">
<path d="M343.5 15.5V226.87H16.5V15.5H343.5Z" stroke="white" stroke-width="17" shape-rendering="crispEdges"/>
</g>
<path fill-rule="evenodd" clip-rule="evenodd" d="M149.563 68.8589C149.563 68.8589 163.108 61.5277 178.671 93.0163C178.767 93.4817 179.419 93.4913 179.412 93.0163C179.206 80.5384 177.312 71.4973 172.68 62.3204C157.392 32.0283 117.693 34.0243 91.5942 48.5118C90.2934 49.2335 88.559 48.985 91.59 51.7904C115.928 65.6286 127.813 109.251 177.93 94.7455C167.061 69.6796 149.563 68.8589 149.563 68.8589Z" fill="white"/>
<path fill-rule="evenodd" clip-rule="evenodd" d="M216.403 78.9574C216.403 78.9574 211.387 76.1731 195.487 92.2832C195.385 92.6023 193.773 91.9879 193.813 91.6555C194.877 82.9241 196.758 78.7625 200.681 72.671C213.629 52.5635 241.31 56.8874 258.537 68.9656C259.396 69.5673 260.63 69.5209 258.298 71.2641C240.219 79.1711 231.641 107.608 197.579 93.7477C209.504 79.5207 216.403 78.9574 216.403 78.9574Z" fill="white"/>
<path d="M176.122 105.025C176.122 98.476 181.43 93.1673 187.979 93.1673C194.528 93.1673 199.836 98.476 199.836 105.025V123.532L176.122 127.257V105.025Z" fill="white"/>
<path d="M136.749 149.257C135.724 142.789 140.137 136.715 146.605 135.691L226.632 123.016C233.1 121.991 239.174 126.404 240.198 132.872C241.223 139.34 236.81 145.414 230.342 146.438L150.315 159.113C143.847 160.138 137.773 155.725 136.749 149.257Z" fill="white"/>
<path d="M147.484 175.25C146.459 168.782 150.872 162.709 157.34 161.684L215.897 152.41C222.365 151.385 228.438 155.798 229.463 162.266C230.487 168.734 226.074 174.808 219.607 175.832L161.05 185.107C154.582 186.131 148.508 181.718 147.484 175.25Z" fill="white"/>
<path d="M163.581 200.288C162.556 193.82 166.969 187.747 173.437 186.722L198.811 182.703C205.279 181.679 211.353 186.092 212.378 192.56C213.402 199.028 208.989 205.101 202.521 206.126L177.147 210.145C170.679 211.169 164.605 206.756 163.581 200.288Z" fill="white"/>
<path d="M438.322 160.371L392 21H422.678L456.2 122.379H457.013L490.129 21H518.572L472.047 160.371H438.322Z" fill="white"/>
<path d="M535.391 160.371V21H632.301L629.05 43.7545H564.85V78.0893H624.378V100.437H564.85V137.617H629.863L633.114 160.371H535.391Z" fill="white"/>
<path d="M656.616 160.371V21H681.402L731.177 94.952L738.491 107.751L739.304 107.548V21H766.122V160.371H740.726L689.528 83.7779L684.449 74.4324L683.434 74.6355V160.371H656.616Z" fill="white"/>
<path d="M797.879 160.371V21H853.14C861.131 21 868.648 22.2867 875.691 24.8601C882.734 27.2981 888.897 31.0905 894.179 36.2374C899.597 41.2488 903.795 47.6146 906.775 55.3349C909.755 62.9197 911.245 71.9266 911.245 82.3558V95.3583C911.245 105.652 909.755 114.862 906.775 122.989C903.795 130.98 899.597 137.752 894.179 143.305C888.897 148.858 882.734 153.125 875.691 156.105C868.648 158.949 861.131 160.371 853.14 160.371H797.879ZM827.541 137.617H850.702C856.255 137.617 861.198 136.398 865.533 133.96C870.002 131.386 873.524 127.458 876.097 122.176C878.671 116.894 879.957 110.054 879.957 101.656V77.4798C879.957 69.2178 878.671 62.6488 876.097 57.7728C873.524 52.7614 870.002 49.1722 865.533 47.0051C861.198 44.7026 856.255 43.5513 850.702 43.5513H827.541V137.617Z" fill="white"/>
<path d="M921.925 160.371L973.123 21H1008.47L1059.47 160.371H1028.59L1017.82 131.522H961.339L950.571 160.371H921.925ZM968.653 110.189H1010.3L989.985 52.2874H989.173L968.653 110.189Z" fill="white"/>
<path d="M429.276 238.145L450.875 179.348H465.789L487.302 238.145H474.274L469.732 225.974H445.904L441.361 238.145H429.276ZM448.99 216.975H466.56L457.989 192.547H457.646L448.99 216.975Z" fill="white"/>
<path d="M515.297 239.002C511.925 239.002 508.811 238.431 505.954 237.288C503.097 236.145 500.612 234.46 498.497 232.231C496.383 229.946 494.726 227.117 493.526 223.746C492.383 220.375 491.812 216.403 491.812 211.832V205.575C491.812 201.061 492.412 197.119 493.612 193.747C494.869 190.319 496.64 187.491 498.926 185.262C501.212 182.977 503.869 181.291 506.897 180.205C509.983 179.062 513.325 178.491 516.925 178.491H518.468C521.611 178.491 524.553 178.948 527.296 179.862C530.039 180.777 532.467 182.148 534.581 183.976C536.696 185.748 538.353 188.005 539.553 190.748C540.752 193.433 541.352 196.547 541.352 200.09H529.782C529.782 197.119 529.21 194.747 528.067 192.976C526.982 191.205 525.496 189.948 523.61 189.205C521.782 188.405 519.696 188.005 517.354 188.005C515.582 188.005 513.925 188.291 512.382 188.862C510.897 189.376 509.583 190.233 508.44 191.433C507.354 192.576 506.497 194.119 505.868 196.062C505.297 197.947 505.011 200.261 505.011 203.004V214.489C505.011 217.232 505.297 219.575 505.868 221.518C506.497 223.403 507.354 224.946 508.44 226.146C509.583 227.289 510.897 228.146 512.382 228.717C513.925 229.231 515.582 229.489 517.354 229.489C519.125 229.489 520.753 229.289 522.239 228.889C523.782 228.489 525.125 227.832 526.267 226.917C527.41 226.003 528.296 224.775 528.924 223.232C529.553 221.689 529.867 219.746 529.867 217.403V214.918H515.725V206.433H541.352V226.66C541.352 229.46 541.41 231.774 541.524 233.603C541.695 235.374 541.81 236.888 541.867 238.145H535.01L533.039 231.203C531.267 233.66 528.81 235.574 525.667 236.945C522.525 238.317 519.296 239.002 515.982 239.002H515.297Z" fill="white"/>
<path d="M595.215 238.745C593.272 238.745 591.558 238.431 590.073 237.802C588.644 237.174 587.501 236.06 586.644 234.46C585.787 232.86 585.359 230.603 585.359 227.689C585.359 225.574 585.13 223.746 584.673 222.203C584.273 220.603 583.644 219.26 582.787 218.175C581.987 217.032 581.016 216.203 579.873 215.689C578.787 215.118 577.588 214.832 576.273 214.832H565.645V238.145H553.303V179.348H582.873C585.673 179.348 588.273 179.948 590.673 181.148C593.072 182.348 595.015 184.034 596.501 186.205C598.044 188.376 598.815 190.976 598.815 194.005C598.815 196.462 598.329 198.719 597.358 200.776C596.444 202.776 595.187 204.518 593.587 206.004C591.987 207.49 590.244 208.604 588.358 209.347V209.775C589.33 210.061 590.358 210.547 591.444 211.232C592.53 211.918 593.53 212.832 594.444 213.975C595.415 215.118 596.187 216.518 596.758 218.175C597.387 219.832 597.701 221.775 597.701 224.003C597.701 225.66 597.758 227.117 597.872 228.374C598.044 229.574 598.272 230.631 598.558 231.546C598.901 232.403 599.358 233.117 599.929 233.688C600.501 234.26 601.215 234.688 602.072 234.974V237.631C601.158 237.974 600.072 238.231 598.815 238.402C597.615 238.631 596.415 238.745 595.215 238.745ZM565.645 205.404H578.93C580.302 205.404 581.53 204.975 582.616 204.118C583.701 203.204 584.559 202.033 585.187 200.604C585.873 199.176 586.216 197.633 586.216 195.976C586.216 193.747 585.53 192.005 584.159 190.748C582.844 189.49 581.13 188.862 579.016 188.862H565.645V205.404Z" fill="white"/>
<path d="M633.507 239.002C630.136 239.002 626.964 238.431 623.993 237.288C621.022 236.145 618.393 234.46 616.108 232.231C613.879 229.946 612.136 227.117 610.879 223.746C609.622 220.375 608.994 216.403 608.994 211.832V205.747C608.994 201.176 609.622 197.204 610.879 193.833C612.194 190.462 613.965 187.662 616.193 185.434C618.479 183.148 621.079 181.434 623.993 180.291C626.964 179.148 630.107 178.577 633.421 178.577H636.335C639.764 178.577 642.935 179.148 645.849 180.291C648.82 181.434 651.42 183.148 653.649 185.434C655.934 187.662 657.706 190.462 658.963 193.833C660.22 197.204 660.848 201.176 660.848 205.747V211.832C660.848 216.403 660.191 220.375 658.877 223.746C657.62 227.117 655.849 229.946 653.563 232.231C651.335 234.46 648.735 236.145 645.763 237.288C642.849 238.431 639.735 239.002 636.421 239.002H633.507ZM634.878 229.489C636.707 229.489 638.392 229.231 639.935 228.717C641.478 228.146 642.821 227.289 643.964 226.146C645.106 224.946 645.992 223.403 646.621 221.518C647.306 219.632 647.649 217.318 647.649 214.575V203.09C647.649 200.347 647.306 198.033 646.621 196.147C645.992 194.205 645.106 192.662 643.964 191.519C642.821 190.319 641.478 189.462 639.935 188.948C638.392 188.376 636.735 188.091 634.964 188.091C633.193 188.091 631.507 188.376 629.907 188.948C628.364 189.462 627.021 190.319 625.879 191.519C624.736 192.662 623.822 194.176 623.136 196.062C622.507 197.947 622.193 200.261 622.193 203.004V214.489C622.193 217.232 622.507 219.575 623.136 221.518C623.822 223.403 624.736 224.946 625.879 226.146C627.021 227.289 628.364 228.146 629.907 228.717C631.45 229.231 633.107 229.489 634.878 229.489Z" fill="white"/>
<path d="M671.657 238.145V179.348H691.884L706.455 219.632H706.712L721.197 179.348H741.51V238.145H729.082V193.833H728.74L712.883 238.145H699.084L683.313 193.833H682.885V238.145H671.657Z" fill="white"/>
<path d="M748.262 238.145L769.861 179.348H784.775L806.288 238.145H793.26L788.717 225.974H764.89L760.347 238.145H748.262ZM767.975 216.975H785.546L776.975 192.547H776.632L767.975 216.975Z" fill="white"/>
<path d="M854.94 238.745C852.998 238.745 851.283 238.431 849.798 237.802C848.369 237.174 847.226 236.06 846.369 234.46C845.512 232.86 845.084 230.603 845.084 227.689C845.084 225.574 844.855 223.746 844.398 222.203C843.998 220.603 843.369 219.26 842.512 218.175C841.712 217.032 840.741 216.203 839.598 215.689C838.513 215.118 837.313 214.832 835.998 214.832H825.37V238.145H813.028V179.348H842.598C845.398 179.348 847.998 179.948 850.398 181.148C852.798 182.348 854.74 184.034 856.226 186.205C857.769 188.376 858.54 190.976 858.54 194.005C858.54 196.462 858.055 198.719 857.083 200.776C856.169 202.776 854.912 204.518 853.312 206.004C851.712 207.49 849.969 208.604 848.084 209.347V209.775C849.055 210.061 850.083 210.547 851.169 211.232C852.255 211.918 853.255 212.832 854.169 213.975C855.14 215.118 855.912 216.518 856.483 218.175C857.112 219.832 857.426 221.775 857.426 224.003C857.426 225.66 857.483 227.117 857.597 228.374C857.769 229.574 857.997 230.631 858.283 231.546C858.626 232.403 859.083 233.117 859.654 233.688C860.226 234.26 860.94 234.688 861.797 234.974V237.631C860.883 237.974 859.797 238.231 858.54 238.402C857.34 238.631 856.14 238.745 854.94 238.745ZM825.37 205.404H838.655C840.027 205.404 841.255 204.975 842.341 204.118C843.427 203.204 844.284 202.033 844.912 200.604C845.598 199.176 845.941 197.633 845.941 195.976C845.941 193.747 845.255 192.005 843.884 190.748C842.57 189.49 840.855 188.862 838.741 188.862H825.37V205.404Z" fill="white"/>
<path d="M871.033 238.145V179.348H883.547V207.461L906.089 179.348H919.459L899.832 203.776L920.402 238.145H906.346L891.689 213.375L883.547 222.889V238.145H871.033Z" fill="white"/>
<path d="M927.615 238.145V179.348H968.499L967.128 188.948H940.043V203.433H965.156V212.861H940.043V228.546H967.47L968.842 238.145H927.615Z" fill="white"/>
<path d="M990.842 238.145V189.033H973.957V179.348H1020.15V189.033H1003.27V238.145H990.842Z" fill="white"/>
<path d="M534.779 275C533.359 275 532.032 274.79 530.798 274.371C529.588 273.952 528.517 273.3 527.586 272.416C526.655 271.531 525.921 270.391 525.386 268.994C524.874 267.597 524.618 265.909 524.618 263.93V261.381C524.618 259.473 524.885 257.82 525.421 256.423C525.956 255.026 526.69 253.885 527.621 253.001C528.552 252.093 529.623 251.43 530.833 251.01C532.044 250.568 533.336 250.347 534.709 250.347H535.338C536.641 250.347 537.864 250.533 539.004 250.906C540.168 251.255 541.181 251.825 542.042 252.617C542.927 253.385 543.614 254.386 544.102 255.62C544.615 256.854 544.871 258.343 544.871 260.089H540.087C540.087 258.553 539.866 257.366 539.423 256.528C539.004 255.666 538.411 255.073 537.642 254.747C536.898 254.398 536.013 254.223 534.989 254.223C534.267 254.223 533.592 254.339 532.963 254.572C532.358 254.782 531.834 255.131 531.392 255.62C530.95 256.085 530.6 256.714 530.344 257.505C530.112 258.274 529.995 259.216 529.995 260.334V265.013C529.995 266.503 530.205 267.702 530.624 268.61C531.043 269.494 531.625 270.134 532.37 270.53C533.115 270.926 533.988 271.124 534.989 271.124C536.083 271.124 537.026 270.961 537.817 270.635C538.609 270.286 539.214 269.692 539.633 268.854C540.052 267.993 540.261 266.805 540.261 265.292H544.871C544.871 266.945 544.615 268.388 544.102 269.622C543.614 270.833 542.938 271.834 542.077 272.625C541.216 273.417 540.215 274.01 539.074 274.406C537.933 274.802 536.711 275 535.408 275H534.779Z" fill="white"/>
<path d="M557.819 275C556.445 275 555.153 274.767 553.943 274.301C552.732 273.836 551.661 273.149 550.73 272.241C549.822 271.31 549.112 270.158 548.6 268.784C548.088 267.411 547.832 265.793 547.832 263.93V261.451C547.832 259.589 548.088 257.971 548.6 256.598C549.136 255.224 549.857 254.083 550.765 253.175C551.696 252.244 552.756 251.546 553.943 251.08C555.153 250.615 556.434 250.382 557.784 250.382H558.971C560.368 250.382 561.66 250.615 562.847 251.08C564.058 251.546 565.117 252.244 566.025 253.175C566.956 254.083 567.678 255.224 568.19 256.598C568.702 257.971 568.958 259.589 568.958 261.451V263.93C568.958 265.793 568.69 267.411 568.155 268.784C567.643 270.158 566.921 271.31 565.99 272.241C565.082 273.149 564.023 273.836 562.812 274.301C561.625 274.767 560.356 275 559.006 275H557.819ZM558.377 271.124C559.122 271.124 559.809 271.019 560.438 270.81C561.066 270.577 561.613 270.228 562.079 269.762C562.544 269.273 562.905 268.645 563.161 267.876C563.441 267.108 563.58 266.165 563.58 265.048V260.369C563.58 259.251 563.441 258.309 563.161 257.54C562.905 256.749 562.544 256.12 562.079 255.655C561.613 255.166 561.066 254.817 560.438 254.607C559.809 254.374 559.134 254.258 558.412 254.258C557.691 254.258 557.004 254.374 556.352 254.607C555.724 254.817 555.177 255.166 554.711 255.655C554.245 256.12 553.873 256.737 553.594 257.505C553.338 258.274 553.209 259.216 553.209 260.334V265.013C553.209 266.13 553.338 267.085 553.594 267.876C553.873 268.645 554.245 269.273 554.711 269.762C555.177 270.228 555.724 270.577 556.352 270.81C556.981 271.019 557.656 271.124 558.377 271.124Z" fill="white"/>
<path d="M573.012 274.651V250.696H577.272L585.827 263.407L587.084 265.607L587.224 265.572V250.696H591.833V274.651H587.469L578.669 261.486L577.796 259.88L577.621 259.915V274.651H573.012Z" fill="white"/>
<path d="M596.942 274.651V250.696H613.599L613.04 254.607H602.006V260.508H612.237V264.35H602.006V270.74H613.18L613.738 274.651H596.942Z" fill="white"/>
<path d="M626.511 275C625.091 275 623.764 274.79 622.53 274.371C621.32 273.952 620.249 273.3 619.318 272.416C618.386 271.531 617.653 270.391 617.118 268.994C616.606 267.597 616.349 265.909 616.349 263.93V261.381C616.349 259.473 616.617 257.82 617.153 256.423C617.688 255.026 618.421 253.885 619.353 253.001C620.284 252.093 621.355 251.43 622.565 251.01C623.776 250.568 625.068 250.347 626.441 250.347H627.07C628.373 250.347 629.595 250.533 630.736 250.906C631.9 251.255 632.913 251.825 633.774 252.617C634.659 253.385 635.345 254.386 635.834 255.62C636.346 256.854 636.602 258.343 636.602 260.089H631.819C631.819 258.553 631.597 257.366 631.155 256.528C630.736 255.666 630.142 255.073 629.374 254.747C628.629 254.398 627.745 254.223 626.72 254.223C625.999 254.223 625.324 254.339 624.695 254.572C624.09 254.782 623.566 255.131 623.124 255.62C622.681 256.085 622.332 256.714 622.076 257.505C621.843 258.274 621.727 259.216 621.727 260.334V265.013C621.727 266.503 621.937 267.702 622.356 268.61C622.775 269.494 623.357 270.134 624.101 270.53C624.846 270.926 625.719 271.124 626.72 271.124C627.815 271.124 628.757 270.961 629.549 270.635C630.34 270.286 630.946 269.692 631.365 268.854C631.784 267.993 631.993 266.805 631.993 265.292H636.602C636.602 266.945 636.346 268.388 635.834 269.622C635.345 270.833 634.67 271.834 633.809 272.625C632.948 273.417 631.947 274.01 630.806 274.406C629.665 274.802 628.443 275 627.139 275H626.511Z" fill="white"/>
<path d="M645.43 274.651V254.642H638.551V250.696H657.372V254.642H650.493V274.651H645.43Z" fill="white"/>
<path d="M655.988 274.651L664.787 250.696H670.863L679.628 274.651H674.32L672.469 269.692H662.762L660.911 274.651H655.988ZM664.019 266.026H671.177L667.686 256.074H667.546L664.019 266.026Z" fill="white"/>
<path d="M682.025 274.651V250.696H686.285L694.84 263.407L696.097 265.607L696.237 265.572V250.696H700.846V274.651H696.481L687.682 261.486L686.809 259.88L686.634 259.915V274.651H682.025Z" fill="white"/>
<path d="M705.955 274.651V250.696H715.453C716.826 250.696 718.118 250.917 719.329 251.36C720.54 251.779 721.599 252.431 722.507 253.315C723.438 254.176 724.159 255.271 724.672 256.598C725.184 257.901 725.44 259.449 725.44 261.242V263.477C725.44 265.246 725.184 266.829 724.672 268.226C724.159 269.599 723.438 270.763 722.507 271.717C721.599 272.672 720.54 273.405 719.329 273.917C718.118 274.406 716.826 274.651 715.453 274.651H705.955ZM711.053 270.74H715.034C715.988 270.74 716.838 270.53 717.583 270.111C718.351 269.669 718.957 268.994 719.399 268.086C719.841 267.178 720.062 266.002 720.062 264.559V260.404C720.062 258.984 719.841 257.855 719.399 257.017C718.957 256.155 718.351 255.538 717.583 255.166C716.838 254.77 715.988 254.572 715.034 254.572H711.053V270.74Z" fill="white"/>
<path d="M738.623 275C737.249 275 735.957 274.767 734.747 274.301C733.536 273.836 732.465 273.149 731.534 272.241C730.626 271.31 729.916 270.158 729.404 268.784C728.892 267.411 728.636 265.793 728.636 263.93V261.451C728.636 259.589 728.892 257.971 729.404 256.598C729.939 255.224 730.661 254.083 731.569 253.175C732.5 252.244 733.559 251.546 734.747 251.08C735.957 250.615 737.237 250.382 738.588 250.382H739.775C741.172 250.382 742.464 250.615 743.651 251.08C744.861 251.546 745.921 252.244 746.828 253.175C747.76 254.083 748.481 255.224 748.993 256.598C749.506 257.971 749.762 259.589 749.762 261.451V263.93C749.762 265.793 749.494 267.411 748.959 268.784C748.446 270.158 747.725 271.31 746.794 272.241C745.886 273.149 744.826 273.836 743.616 274.301C742.429 274.767 741.16 275 739.81 275H738.623ZM739.181 271.124C739.926 271.124 740.613 271.019 741.241 270.81C741.87 270.577 742.417 270.228 742.883 269.762C743.348 269.273 743.709 268.645 743.965 267.876C744.244 267.108 744.384 266.165 744.384 265.048V260.369C744.384 259.251 744.244 258.309 743.965 257.54C743.709 256.749 743.348 256.12 742.883 255.655C742.417 255.166 741.87 254.817 741.241 254.607C740.613 254.374 739.938 254.258 739.216 254.258C738.495 254.258 737.808 254.374 737.156 254.607C736.527 254.817 735.98 255.166 735.515 255.655C735.049 256.12 734.677 256.737 734.397 257.505C734.141 258.274 734.013 259.216 734.013 260.334V265.013C734.013 266.13 734.141 267.085 734.397 267.876C734.677 268.645 735.049 269.273 735.515 269.762C735.98 270.228 736.527 270.577 737.156 270.81C737.784 271.019 738.46 271.124 739.181 271.124Z" fill="white"/>
<path d="M761.003 274.651V250.696H765.263L773.818 263.407L775.075 265.607L775.215 265.572V250.696H779.824V274.651H775.459L766.66 261.486L765.787 259.88L765.612 259.915V274.651H761.003Z" fill="white"/>
<path d="M784.933 274.651V250.696H801.59L801.031 254.607H789.996V260.508H800.228V264.35H789.996V270.74H801.171L801.729 274.651H784.933Z" fill="white"/>
<path d="M813.908 275C812.535 275 811.266 274.767 810.102 274.301C808.938 273.836 807.925 273.149 807.064 272.241C806.203 271.31 805.528 270.158 805.039 268.784C804.573 267.411 804.34 265.793 804.34 263.93V261.381C804.34 259.542 804.585 257.936 805.074 256.563C805.586 255.166 806.307 254.014 807.239 253.106C808.17 252.174 809.252 251.488 810.486 251.045C811.743 250.58 813.105 250.347 814.572 250.347H815.2C816.48 250.347 817.679 250.533 818.797 250.906C819.914 251.278 820.903 251.837 821.765 252.582C822.626 253.303 823.301 254.223 823.79 255.34C824.279 256.435 824.523 257.703 824.523 259.147H819.809C819.809 257.936 819.577 256.97 819.111 256.248C818.669 255.527 818.063 255.015 817.295 254.712C816.55 254.386 815.701 254.223 814.746 254.223C814.024 254.223 813.349 254.339 812.721 254.572C812.116 254.782 811.58 255.131 811.115 255.62C810.672 256.085 810.323 256.714 810.067 257.505C809.834 258.274 809.718 259.216 809.718 260.334V265.013C809.718 266.13 809.834 267.085 810.067 267.876C810.323 268.645 810.672 269.273 811.115 269.762C811.58 270.228 812.116 270.577 812.721 270.81C813.349 271.019 814.024 271.124 814.746 271.124C815.468 271.124 816.131 271.042 816.736 270.879C817.365 270.716 817.912 270.449 818.378 270.076C818.843 269.704 819.204 269.203 819.46 268.575C819.716 267.946 819.844 267.155 819.844 266.2V265.188H814.083V261.731H824.523V269.971C824.523 271.112 824.547 272.055 824.593 272.8C824.663 273.522 824.71 274.138 824.733 274.651H821.939L821.136 271.822C820.415 272.823 819.414 273.603 818.133 274.162C816.853 274.72 815.538 275 814.187 275H813.908Z" fill="white"/>
<path d="M838.087 275C836.713 275 835.421 274.767 834.211 274.301C833 273.836 831.93 273.149 830.998 272.241C830.091 271.31 829.38 270.158 828.868 268.784C828.356 267.411 828.1 265.793 828.1 263.93V261.451C828.1 259.589 828.356 257.971 828.868 256.598C829.404 255.224 830.125 254.083 831.033 253.175C831.965 252.244 833.024 251.546 834.211 251.08C835.421 250.615 836.702 250.382 838.052 250.382H839.239C840.636 250.382 841.928 250.615 843.115 251.08C844.326 251.546 845.385 252.244 846.293 253.175C847.224 254.083 847.946 255.224 848.458 256.598C848.97 257.971 849.226 259.589 849.226 261.451V263.93C849.226 265.793 848.958 267.411 848.423 268.784C847.911 270.158 847.189 271.31 846.258 272.241C845.35 273.149 844.291 273.836 843.08 274.301C841.893 274.767 840.624 275 839.274 275H838.087ZM838.646 271.124C839.391 271.124 840.077 271.019 840.706 270.81C841.334 270.577 841.881 270.228 842.347 269.762C842.813 269.273 843.173 268.645 843.43 267.876C843.709 267.108 843.849 266.165 843.849 265.048V260.369C843.849 259.251 843.709 258.309 843.43 257.54C843.173 256.749 842.813 256.12 842.347 255.655C841.881 255.166 841.334 254.817 840.706 254.607C840.077 254.374 839.402 254.258 838.681 254.258C837.959 254.258 837.272 254.374 836.62 254.607C835.992 254.817 835.445 255.166 834.979 255.655C834.514 256.12 834.141 256.737 833.862 257.505C833.606 258.274 833.478 259.216 833.478 260.334V265.013C833.478 266.13 833.606 267.085 833.862 267.876C834.141 268.645 834.514 269.273 834.979 269.762C835.445 270.228 835.992 270.577 836.62 270.81C837.249 271.019 837.924 271.124 838.646 271.124ZM837.074 248.392L840.461 243.608H844.826L844.861 243.712L840.671 248.392H837.074Z" fill="white"/>
<path d="M862.567 275C861.147 275 859.82 274.79 858.586 274.371C857.376 273.952 856.305 273.3 855.374 272.416C854.443 271.531 853.709 270.391 853.174 268.994C852.662 267.597 852.406 265.909 852.406 263.93V261.381C852.406 259.473 852.673 257.82 853.209 256.423C853.744 255.026 854.477 253.885 855.409 253.001C856.34 252.093 857.411 251.43 858.621 251.01C859.832 250.568 861.124 250.347 862.497 250.347H863.126C864.429 250.347 865.652 250.533 866.792 250.906C867.956 251.255 868.969 251.825 869.83 252.617C870.715 253.385 871.402 254.386 871.89 255.62C872.403 256.854 872.659 258.343 872.659 260.089H867.875C867.875 258.553 867.654 257.366 867.211 256.528C866.792 255.666 866.199 255.073 865.43 254.747C864.685 254.398 863.801 254.223 862.777 254.223C862.055 254.223 861.38 254.339 860.751 254.572C860.146 254.782 859.622 255.131 859.18 255.62C858.738 256.085 858.388 256.714 858.132 257.505C857.9 258.274 857.783 259.216 857.783 260.334V265.013C857.783 266.503 857.993 267.702 858.412 268.61C858.831 269.494 859.413 270.134 860.158 270.53C860.903 270.926 861.776 271.124 862.777 271.124C863.871 271.124 864.813 270.961 865.605 270.635C866.396 270.286 867.002 269.692 867.421 268.854C867.84 267.993 868.049 266.805 868.049 265.292H872.659C872.659 266.945 872.403 268.388 871.89 269.622C871.402 270.833 870.726 271.834 869.865 272.625C869.004 273.417 868.003 274.01 866.862 274.406C865.721 274.802 864.499 275 863.196 275H862.567Z" fill="white"/>
<path d="M875.69 274.651V270.844H878.483V254.502H875.69V250.696H886.375V254.502H883.581V270.844H886.375V274.651H875.69Z" fill="white"/>
<path d="M899.58 275C898.206 275 896.914 274.767 895.704 274.301C894.493 273.836 893.422 273.149 892.491 272.241C891.583 271.31 890.873 270.158 890.361 268.784C889.849 267.411 889.593 265.793 889.593 263.93V261.451C889.593 259.589 889.849 257.971 890.361 256.598C890.897 255.224 891.618 254.083 892.526 253.175C893.457 252.244 894.517 251.546 895.704 251.08C896.914 250.615 898.195 250.382 899.545 250.382H900.732C902.129 250.382 903.421 250.615 904.608 251.08C905.819 251.546 906.878 252.244 907.786 253.175C908.717 254.083 909.439 255.224 909.951 256.598C910.463 257.971 910.719 259.589 910.719 261.451V263.93C910.719 265.793 910.451 267.411 909.916 268.784C909.404 270.158 908.682 271.31 907.751 272.241C906.843 273.149 905.784 273.836 904.573 274.301C903.386 274.767 902.117 275 900.767 275H899.58ZM900.138 271.124C900.883 271.124 901.57 271.019 902.199 270.81C902.827 270.577 903.374 270.228 903.84 269.762C904.305 269.273 904.666 268.645 904.922 267.876C905.202 267.108 905.341 266.165 905.341 265.048V260.369C905.341 259.251 905.202 258.309 904.922 257.54C904.666 256.749 904.305 256.12 903.84 255.655C903.374 255.166 902.827 254.817 902.199 254.607C901.57 254.374 900.895 254.258 900.173 254.258C899.452 254.258 898.765 254.374 898.113 254.607C897.485 254.817 896.938 255.166 896.472 255.655C896.006 256.12 895.634 256.737 895.355 257.505C895.099 258.274 894.97 259.216 894.97 260.334V265.013C894.97 266.13 895.099 267.085 895.355 267.876C895.634 268.645 896.006 269.273 896.472 269.762C896.938 270.228 897.485 270.577 898.113 270.81C898.742 271.019 899.417 271.124 900.138 271.124Z" fill="white"/>
<path d="M922.908 275C921.208 275 919.648 274.755 918.228 274.267C916.832 273.754 915.703 272.963 914.841 271.892C914.003 270.821 913.584 269.413 913.584 267.667C913.584 267.527 913.584 267.399 913.584 267.283C913.584 267.143 913.596 267.015 913.619 266.899H918.333C918.31 267.015 918.298 267.12 918.298 267.213C918.298 267.306 918.298 267.411 918.298 267.527C918.298 268.272 918.473 268.912 918.822 269.448C919.194 269.983 919.73 270.391 920.428 270.67C921.15 270.949 922 271.089 922.977 271.089C924.072 271.089 924.968 270.984 925.666 270.775C926.365 270.542 926.888 270.193 927.237 269.727C927.587 269.261 927.761 268.691 927.761 268.016C927.761 267.294 927.505 266.724 926.993 266.305C926.504 265.863 925.852 265.513 925.038 265.257C924.246 265.001 923.361 264.769 922.384 264.559C921.429 264.326 920.463 264.059 919.485 263.756C918.531 263.453 917.646 263.046 916.832 262.534C916.017 262.022 915.365 261.346 914.876 260.508C914.387 259.67 914.143 258.6 914.143 257.296C914.143 255.736 914.562 254.444 915.4 253.42C916.261 252.396 917.39 251.627 918.787 251.115C920.207 250.603 921.744 250.347 923.396 250.347C925.049 250.347 926.551 250.591 927.901 251.08C929.251 251.546 930.334 252.291 931.148 253.315C931.963 254.316 932.371 255.62 932.371 257.226V257.68H927.726V257.261C927.726 256.632 927.552 256.085 927.203 255.62C926.877 255.154 926.399 254.805 925.771 254.572C925.142 254.316 924.374 254.188 923.466 254.188C922.628 254.188 921.883 254.281 921.231 254.467C920.603 254.63 920.114 254.91 919.765 255.306C919.416 255.678 919.241 256.167 919.241 256.772C919.241 257.47 919.485 258.029 919.974 258.448C920.463 258.867 921.115 259.205 921.93 259.461C922.745 259.694 923.641 259.926 924.619 260.159C925.62 260.369 926.597 260.625 927.552 260.927C928.529 261.207 929.426 261.603 930.241 262.115C931.055 262.604 931.707 263.267 932.196 264.105C932.685 264.92 932.929 265.967 932.929 267.248C932.929 269.11 932.487 270.612 931.602 271.752C930.718 272.87 929.519 273.696 928.006 274.232C926.516 274.744 924.816 275 922.908 275Z" fill="white"/>
<path d="M1015 120H1082M1082 120H1149M1082 120V53M1082 120V187" stroke="white" stroke-width="22" stroke-linecap="round" stroke-linejoin="round"/>
<defs>
<filter id="filter0_d_836_2224" x="46.652" y="240.333" width="268.141" height="71.5698" filterUnits="userSpaceOnUse" color-interpolation-filters="sRGB">
<feFlood flood-opacity="0" result="BackgroundImageFix"/>
<feColorMatrix in="SourceAlpha" type="matrix" values="0 0 0 0 0 0 0 0 0 0 0 0 0 0 0 0 0 0 127 0" result="hardAlpha"/>
<feOffset dy="1"/>
<feGaussianBlur stdDeviation="3.8"/>
<feComposite in2="hardAlpha" operator="out"/>
<feColorMatrix type="matrix" values="0 0 0 0 0.983333 0 0 0 0 0.983333 0 0 0 0 0.983333 0 0 0 0.14 0"/>
<feBlend mode="normal" in2="BackgroundImageFix" result="effect1_dropShadow_836_2224"/>
<feBlend mode="normal" in="SourceGraphic" in2="effect1_dropShadow_836_2224" result="shape"/>
</filter>
<filter id="filter1_d_836_2224" x="0.4" y="0.4" width="359.2" height="243.57" filterUnits="userSpaceOnUse" color-interpolation-filters="sRGB">
<feFlood flood-opacity="0" result="BackgroundImageFix"/>
<feColorMatrix in="SourceAlpha" type="matrix" values="0 0 0 0 0 0 0 0 0 0 0 0 0 0 0 0 0 0 127 0" result="hardAlpha"/>
<feOffset dy="1"/>
<feGaussianBlur stdDeviation="3.8"/>
<feComposite in2="hardAlpha" operator="out"/>
<feColorMatrix type="matrix" values="0 0 0 0 1 0 0 0 0 1 0 0 0 0 1 0 0 0 0.14 0"/>
<feBlend mode="normal" in2="BackgroundImageFix" result="effect1_dropShadow_836_2224"/>
<feBlend mode="normal" in="SourceGraphic" in2="effect1_dropShadow_836_2224" result="shape"/>
</filter>
</defs>
</svg>
